<svg width="27" height="27" viewBox="0 0 27 27" fill="none" xmlns="http://www.w3.org/2000/svg">
<path d="M22.129 16.3449C21.5557 15.7481 20.8643 15.4289 20.1315 15.4289C19.4046 15.4289 18.7073 15.7422 18.1104 16.339L16.243 18.2005C16.0894 18.1178 15.9357 18.041 15.788 17.9642C15.5752 17.8578 15.3743 17.7573 15.2029 17.651C13.4537 16.5399 11.864 15.0921 10.3393 13.2188C9.60063 12.285 9.10423 11.4991 8.74374 10.7013C9.22833 10.2581 9.67746 9.7971 10.1148 9.35388C10.2802 9.18841 10.4457 9.01704 10.6112 8.85157C11.8522 7.61055 11.8522 6.00315 10.6112 4.76213L8.99785 3.14881C8.81466 2.96562 8.62555 2.77651 8.44826 2.5874C8.09369 2.22101 7.72138 1.84279 7.33726 1.48822C6.76403 0.920896 6.07852 0.619507 5.35755 0.619507C4.63658 0.619507 3.93924 0.920896 3.34829 1.48822C3.34238 1.49413 3.34238 1.49413 3.33647 1.50004L1.32721 3.52703C0.570778 4.28345 0.139378 5.20535 0.0448249 6.27499C-0.0970053 8.00059 0.41122 9.608 0.801252 10.6599C1.75861 13.2424 3.18873 15.6358 5.32209 18.2005C7.91049 21.2913 11.0248 23.7319 14.5824 25.4516C15.9416 26.0958 17.7559 26.8581 19.7829 26.9881C19.907 26.994 20.037 26.9999 20.1552 26.9999C21.5203 26.9999 22.6667 26.5094 23.565 25.5343C23.5709 25.5225 23.5827 25.5166 23.5886 25.5048C23.8959 25.1325 24.2505 24.7956 24.6228 24.4352C24.8769 24.1929 25.1369 23.9388 25.3911 23.6728C25.9761 23.0641 26.2834 22.355 26.2834 21.6281C26.2834 20.8953 25.9702 20.1921 25.3733 19.6011L22.129 16.3449ZM24.2446 22.5677C24.2387 22.5677 24.2387 22.5736 24.2446 22.5677C24.0141 22.8159 23.7777 23.0405 23.5236 23.2887C23.1395 23.6551 22.7495 24.0392 22.3831 24.4706C21.7862 25.1089 21.083 25.4102 20.1611 25.4102C20.0724 25.4102 19.9779 25.4102 19.8892 25.4043C18.1341 25.2921 16.503 24.6065 15.2797 24.0215C11.9349 22.4023 8.99785 20.1034 6.55719 17.19C4.54202 14.7612 3.19464 12.5155 2.30229 10.1044C1.7527 8.63291 1.55177 7.48645 1.64041 6.405C1.69951 5.71358 1.96544 5.14035 2.45594 4.64985L4.47111 2.63468C4.76068 2.36284 5.06798 2.2151 5.36937 2.2151C5.74167 2.2151 6.04306 2.43966 6.23217 2.62877C6.23808 2.63468 6.24399 2.64059 6.24989 2.6465C6.61038 2.98334 6.95314 3.33201 7.31362 3.70431C7.49682 3.89342 7.68593 4.08253 7.87503 4.27754L9.48835 5.89086C10.1148 6.51728 10.1148 7.09642 9.48835 7.72284C9.31697 7.89422 9.1515 8.06559 8.98013 8.23106C8.48372 8.73929 8.01095 9.21205 7.49682 9.673C7.485 9.68482 7.47318 9.69073 7.46727 9.70255C6.95905 10.2108 7.0536 10.7072 7.15997 11.044C7.16588 11.0618 7.17179 11.0795 7.1777 11.0972C7.59728 12.1137 8.18824 13.071 9.0865 14.2116L9.09241 14.2175C10.7235 16.2267 12.4431 17.7928 14.3401 18.9924C14.5824 19.1461 14.8306 19.2702 15.067 19.3884C15.2797 19.4947 15.4807 19.5952 15.6521 19.7016C15.6757 19.7134 15.6993 19.7311 15.723 19.7429C15.9239 19.8434 16.113 19.8907 16.308 19.8907C16.7985 19.8907 17.1058 19.5834 17.2063 19.4829L19.2274 17.4618C19.4283 17.2609 19.7474 17.0186 20.1197 17.0186C20.4861 17.0186 20.7875 17.2491 20.9707 17.45C20.9766 17.4559 20.9766 17.4559 20.9825 17.4618L24.2387 20.718C24.8474 21.3208 24.8474 21.9413 24.2446 22.5677Z" fill="#1F2230"/>
</svg>
