<svg width="34" height="34" viewBox="0 0 34 34" fill="none" xmlns="http://www.w3.org/2000/svg">
<path d="M9.35 2.23781C9.25703 2.34406 7.50391 4.54211 5.45195 7.12532C2.49688 10.8573 1.72656 11.8734 1.72656 12.0195C1.72656 12.1788 1.82617 12.2917 2.3043 12.6902C2.62969 12.9491 3.30703 13.5933 3.81836 14.1046C5.89023 16.1964 7.10547 18.2417 7.53047 20.3335C7.66992 20.9976 7.66992 22.3058 7.53047 23.1159C7.11875 25.5464 5.50508 28.4616 3.24063 30.8788C2.86211 31.2773 2.72266 31.4765 2.72266 31.6027C2.72266 32.0343 3.02813 32.0409 4.01094 31.6292C6.8 30.4538 9.60234 28.5878 11.6543 26.5292C14.3105 23.873 15.8645 20.9644 16.5086 17.4648C16.6945 16.4753 16.6813 14.596 16.482 13.6265C15.7184 9.85461 13.6 5.97649 10.5586 2.76906C9.80156 1.97219 9.65547 1.91242 9.35 2.23781Z" fill="#90B956"/>
<path d="M24.9555 2.23789C24.8625 2.34414 23.1094 4.54219 21.0574 7.12539C18.1023 10.8574 17.332 11.8734 17.332 12.0195C17.332 12.1789 17.4316 12.2918 17.9164 12.6902C18.2352 12.9492 18.9125 13.5934 19.4238 14.1047C21.4957 16.1965 22.7109 18.2418 23.1359 20.3336C23.2754 20.9977 23.2754 22.3059 23.1359 23.116C23.0098 23.8398 22.6711 24.9555 22.3125 25.7789C21.6152 27.3859 20.2074 29.4445 18.7598 30.9719C18.4543 31.2973 18.3281 31.4832 18.3281 31.6094C18.3281 32.0344 18.6336 32.041 19.6164 31.6293C23.0629 30.1816 26.5293 27.6449 28.6344 25.0352C30.1617 23.1426 31.3238 20.8383 31.8684 18.627C32.1672 17.4184 32.2336 16.8672 32.2336 15.5723C32.2336 14.45 32.2203 14.2176 32.0543 13.4738C31.2508 9.71523 29.1723 5.93672 26.1641 2.76914C25.407 1.97227 25.2609 1.9125 24.9555 2.23789Z" fill="#90B956"/>
</svg>
